<svg width="61" height="61" viewBox="0 0 61 61" fill="none" xmlns="http://www.w3.org/2000/svg">
<g id="Group 5">
<circle id="Ellipse 1" cx="30.5" cy="30.5" r="30.5" fill="#1977F2"/>
<path id="f" d="M38.807 25.3731V28.2836H25V25.3731H38.807ZM28.7858 44V23.2146C28.7858 22.0504 29.1198 21.0843 29.7879 20.3162C30.456 19.5401 31.3415 18.9621 32.4443 18.5821C33.5472 18.194 34.7455 18 36.0392 18C36.9936 18 37.8102 18.0606 38.4889 18.1819C39.1676 18.2951 39.6713 18.4002 40 18.4972L38.8865 21.4319C38.6638 21.3834 38.3775 21.3268 38.0276 21.2621C37.6776 21.1894 37.2534 21.153 36.755 21.153C35.5992 21.153 34.772 21.3713 34.2736 21.8078C33.7858 22.2444 33.5419 22.875 33.5419 23.6996V44H28.7858Z" fill="white"/>
</g>
</svg>
